<svg width="800" height="920" viewBox="0 0 800 920" xmlns="http://www.w3.org/2000/svg" role="img">
  <title>ResNet50 + CBAM Model Architecture</title>
  <desc>High-level architecture of ResNet50 backbone with integrated Convolutional Block Attention Module (CBAM) showing Channel and Spatial Attention detail.</desc>

  <defs>
    <!-- Arrow Markers -->
    <marker id="arrow" viewBox="0 0 10 10" refX="8" refY="5" markerWidth="6" markerHeight="6" orient="auto-start-reverse">
      <path d="M2 1L8 5L2 9" fill="none" stroke="#64748B" stroke-width="1.5" stroke-linecap="round" stroke-linejoin="round"/>
    </marker>
    <marker id="arrow-indigo" viewBox="0 0 10 10" refX="8" refY="5" markerWidth="6" markerHeight="6" orient="auto-start-reverse">
      <path d="M2 1L8 5L2 9" fill="none" stroke="#4F46E5" stroke-width="1.5" stroke-linecap="round" stroke-linejoin="round"/>
    </marker>
    <marker id="arrow-amber" viewBox="0 0 10 10" refX="8" refY="5" markerWidth="6" markerHeight="6" orient="auto-start-reverse">
      <path d="M2 1L8 5L2 9" fill="none" stroke="#D97706" stroke-width="1.5" stroke-linecap="round" stroke-linejoin="round"/>
    </marker>
    <marker id="arrow-teal" viewBox="0 0 10 10" refX="8" refY="5" markerWidth="6" markerHeight="6" orient="auto-start-reverse">
      <path d="M2 1L8 5L2 9" fill="none" stroke="#0D9488" stroke-width="1.5" stroke-linecap="round" stroke-linejoin="round"/>
    </marker>

    <!-- Gradients -->
    <linearGradient id="grad-indigo" x1="0%" y1="0%" x2="0%" y2="100%">
      <stop offset="0%" stop-color="#EEF2FF"/>
      <stop offset="100%" stop-color="#E0E7FF"/>
    </linearGradient>
    <linearGradient id="grad-amber" x1="0%" y1="0%" x2="0%" y2="100%">
      <stop offset="0%" stop-color="#FFFDF5"/>
      <stop offset="100%" stop-color="#FEF3C7"/>
    </linearGradient>
    <linearGradient id="grad-teal" x1="0%" y1="0%" x2="0%" y2="100%">
      <stop offset="0%" stop-color="#F0FDF4"/>
      <stop offset="100%" stop-color="#DCFCE7"/>
    </linearGradient>
    <linearGradient id="grad-grey" x1="0%" y1="0%" x2="0%" y2="100%">
      <stop offset="0%" stop-color="#F8FAFC"/>
      <stop offset="100%" stop-color="#F1F5F9"/>
    </linearGradient>

    <!-- Shadow Filter -->
    <filter id="shadow" x="-10%" y="-10%" width="120%" height="120%">
      <feDropShadow dx="1" dy="2" stdDeviation="2" flood-color="#0F172A" flood-opacity="0.06"/>
    </filter>
  </defs>

  <!-- Background -->
  <rect width="800" height="920" fill="#FAFAFB" rx="16"/>
  <rect width="798" height="918" x="1" y="1" fill="none" stroke="#E2E8F0" stroke-width="2" rx="15"/>

  <!-- Fonts & Style -->
  <style>
    .title { font-family: 'Inter', system-ui, -apple-system, sans-serif; font-size: 18px; font-weight: 800; fill: #0F172A; }
    .subtitle { font-family: 'Inter', system-ui, -apple-system, sans-serif; font-size: 11px; font-weight: 500; fill: #64748B; }
    .section-title { font-family: 'Inter', system-ui, -apple-system, sans-serif; font-size: 13px; font-weight: 700; fill: #1E293B; }
    .node-title { font-family: 'Inter', system-ui, -apple-system, sans-serif; font-size: 10.5px; font-weight: 700; }
    .node-desc { font-family: 'Inter', system-ui, -apple-system, sans-serif; font-size: 9px; font-weight: 500; }
    .dim-label { font-family: 'SFMono-Regular', Consolas, 'Liberation Mono', Menlo, monospace; font-size: 8.5px; font-weight: 600; fill: #64748B; }
    .math-symbol { font-family: 'Inter', system-ui, -apple-system, sans-serif; font-size: 12px; font-weight: 700; fill: #334155; }
    .annotation { font-family: 'Inter', system-ui, -apple-system, sans-serif; font-size: 9px; font-style: italic; fill: #64748B; }
  </style>

  <!-- Header Title -->
  <text class="title" x="40" y="45">ResNet50 + CBAM Model Architecture</text>
  <text class="subtitle" x="40" y="62">Detailed structural pipeline for 4-class Alzheimer's Disease stage classification from FDG-PET scans</text>

  <!-- Legend -->
  <g transform="translate(560, 32)">
    <rect x="0" y="0" width="8" height="8" rx="2" fill="#E0E7FF" stroke="#4F46E5" stroke-width="0.8"/>
    <text class="node-desc" x="14" y="8" fill="#334155">ResNet Backbone</text>

    <rect x="110" y="0" width="8" height="8" rx="2" fill="#FEF3C7" stroke="#D97706" stroke-width="0.8"/>
    <text class="node-desc" x="124" y="8" fill="#334155">CBAM Module</text>
  </g>

  <!-- Vertical Divider (dotted) -->
  <line x1="285" y1="95" x2="285" y2="880" stroke="#CBD5E1" stroke-width="1" stroke-dasharray="4 4"/>

  <!-- ==========================================
       COLUMN 1: BACKBONE PIPELINE (X=150 center)
       ========================================== -->
  <text class="section-title" x="40" y="105">Model Backbone</text>

  <!-- Input -->
  <g transform="translate(60, 125)" filter="url(#shadow)">
    <rect x="0" y="0" width="160" height="40" rx="6" fill="url(#grad-grey)" stroke="#94A3B8" stroke-width="1"/>
    <text class="node-title" fill="#1E293B" x="80" y="18" text-anchor="middle">Input PET Volume</text>
    <text class="node-desc" fill="#64748B" x="80" y="30" text-anchor="middle">1 Coronal Slice (3 × 224 × 224)</text>
  </g>
  <line x1="140" y1="165" x2="140" y2="190" stroke="#64748B" stroke-width="1.2" marker-end="url(#arrow)"/>

  <!-- ResNet Stem -->
  <g transform="translate(60, 190)" filter="url(#shadow)">
    <rect x="0" y="0" width="160" height="40" rx="6" fill="url(#grad-indigo)" stroke="#6366F1" stroke-width="1"/>
    <text class="node-title" fill="#312E81" x="80" y="18" text-anchor="middle">ResNet Stem</text>
    <text class="node-desc" fill="#4F46E5" x="80" y="30" text-anchor="middle">Conv1 (7x7) → BN → MaxPool</text>
  </g>
  <text class="dim-label" x="146" y="242">64 × 56²</text>
  <line x1="140" y1="230" x2="140" y2="255" stroke="#4F46E5" stroke-width="1.2" marker-end="url(#arrow-indigo)"/>

  <!-- Layer 1 -->
  <g transform="translate(60, 255)" filter="url(#shadow)">
    <rect x="0" y="0" width="160" height="40" rx="6" fill="url(#grad-indigo)" stroke="#6366F1" stroke-width="1"/>
    <text class="node-title" fill="#312E81" x="80" y="18" text-anchor="middle">Layer 1 (ResNet Stage 1)</text>
    <text class="node-desc" fill="#4F46E5" x="80" y="30" text-anchor="middle">3 × Bottleneck Blocks</text>
  </g>
  <text class="dim-label" x="146" y="307">256 × 56²</text>
  <line x1="140" y1="295" x2="140" y2="320" stroke="#4F46E5" stroke-width="1.2" marker-end="url(#arrow-indigo)"/>

  <!-- Layer 2 -->
  <g transform="translate(60, 320)" filter="url(#shadow)">
    <rect x="0" y="0" width="160" height="40" rx="6" fill="url(#grad-indigo)" stroke="#6366F1" stroke-width="1"/>
    <text class="node-title" fill="#312E81" x="80" y="18" text-anchor="middle">Layer 2 (ResNet Stage 2)</text>
    <text class="node-desc" fill="#4F46E5" x="80" y="30" text-anchor="middle">4 × Bottleneck Blocks</text>
  </g>
  <text class="dim-label" x="146" y="372">512 × 28²</text>
  <line x1="140" y1="360" x2="140" y2="385" stroke="#4F46E5" stroke-width="1.2" marker-end="url(#arrow-indigo)"/>

  <!-- Layer 3 -->
  <g transform="translate(60, 385)" filter="url(#shadow)">
    <rect x="0" y="0" width="160" height="40" rx="6" fill="url(#grad-indigo)" stroke="#6366F1" stroke-width="1"/>
    <text class="node-title" fill="#312E81" x="80" y="18" text-anchor="middle">Layer 3 (ResNet Stage 3)</text>
    <text class="node-desc" fill="#4F46E5" x="80" y="30" text-anchor="middle">6 × Bottleneck Blocks</text>
  </g>
  <text class="dim-label" x="146" y="437">1024 × 14²</text>
  <line x1="140" y1="425" x2="140" y2="450" stroke="#4F46E5" stroke-width="1.2" marker-end="url(#arrow-indigo)"/>

  <!-- CBAM Attention (Injected) -->
  <g transform="translate(50, 450)" filter="url(#shadow)">
    <rect x="0" y="0" width="180" height="45" rx="8" fill="url(#grad-amber)" stroke="#D97706" stroke-width="1.5"/>
    <text class="node-title" fill="#78350F" x="90" y="18" text-anchor="middle">CBAM Attention Module</text>
    <text class="node-desc" fill="#B45309" x="90" y="32" text-anchor="middle">Channel &amp; Spatial Attention</text>
  </g>
  <text class="dim-label" x="146" y="507">1024 × 14² (Refined)</text>
  <line x1="140" y1="495" x2="140" y2="520" stroke="#D97706" stroke-width="1.2" marker-end="url(#arrow-amber)"/>

  <!-- Dotted Expansion Projection Lines to CBAM Detail -->
  <line x1="230" y1="460" x2="310" y2="120" stroke="#D97706" stroke-width="1" stroke-dasharray="3 3" opacity="0.6"/>
  <line x1="230" y1="485" x2="310" y2="880" stroke="#D97706" stroke-width="1" stroke-dasharray="3 3" opacity="0.6"/>

  <!-- Layer 4 -->
  <g transform="translate(60, 520)" filter="url(#shadow)">
    <rect x="0" y="0" width="160" height="40" rx="6" fill="url(#grad-indigo)" stroke="#6366F1" stroke-width="1"/>
    <text class="node-title" fill="#312E81" x="80" y="18" text-anchor="middle">Layer 4 (ResNet Stage 4)</text>
    <text class="node-desc" fill="#4F46E5" x="80" y="30" text-anchor="middle">3 × Bottleneck Blocks</text>
  </g>
  <text class="dim-label" x="146" y="572">2048 × 7²</text>
  <line x1="140" y1="560" x2="140" y2="585" stroke="#4F46E5" stroke-width="1.2" marker-end="url(#arrow-indigo)"/>

  <!-- Global Avg Pool -->
  <g transform="translate(60, 585)" filter="url(#shadow)">
    <rect x="0" y="0" width="160" height="40" rx="6" fill="url(#grad-grey)" stroke="#94A3B8" stroke-width="1"/>
    <text class="node-title" fill="#1E293B" x="80" y="18" text-anchor="middle">Global Avg Pooling</text>
    <text class="node-desc" fill="#64748B" x="80" y="30" text-anchor="middle">AdaptiveAvgPool2d(1, 1)</text>
  </g>
  <text class="dim-label" x="146" y="637">2048</text>
  <line x1="140" y1="625" x2="140" y2="650" stroke="#64748B" stroke-width="1.2" marker-end="url(#arrow)"/>

  <!-- Classifier Head -->
  <g transform="translate(50, 650)" filter="url(#shadow)">
    <rect x="0" y="0" width="180" height="55" rx="6" fill="url(#grad-grey)" stroke="#475569" stroke-width="1.2"/>
    <text class="node-title" fill="#0F172A" x="90" y="18" text-anchor="middle">Classifier Head</text>
    <text class="node-desc" fill="#334155" x="90" y="32" text-anchor="middle">FC (2048 → 512) → ReLU</text>
    <text class="node-desc" fill="#334155" x="90" y="44" text-anchor="middle">Dropout (0.5) → FC (512 → 4)</text>
  </g>
  <line x1="140" y1="705" x2="140" y2="735" stroke="#475569" stroke-width="1.2" marker-end="url(#arrow)"/>

  <!-- Final 4-Class Output -->
  <g transform="translate(50, 735)" filter="url(#shadow)">
    <rect x="0" y="0" width="180" height="50" rx="6" fill="url(#grad-teal)" stroke="#059669" stroke-width="1.5"/>
    <text class="node-title" fill="#064E3B" x="90" y="20" text-anchor="middle">Softmax Output</text>
    <text class="node-desc" fill="#047857" x="90" y="34" text-anchor="middle">AD Stage Classification</text>
    <text class="node-desc" fill="#047857" x="90" y="44" font-weight="700" text-anchor="middle">CN | EMCI | MCI | AD</text>
  </g>


  <!-- ==========================================
       COLUMN 2: CBAM MICRO-ARCHITECTURE (X=540 center)
       ========================================== -->
  <!-- Outer CBAM Bounding Box -->
  <rect x="310" y="100" width="460" height="785" rx="10" fill="#FFFDF9" stroke="#F59E0B" stroke-width="1.5" filter="url(#shadow)"/>
  <text class="section-title" x="325" y="125" fill="#B45309">CBAM Module Internals (Woo et al.)</text>

  <!-- CBAM Input Tensor -->
  <g transform="translate(465, 145)" filter="url(#shadow)">
    <rect x="0" y="0" width="150" height="30" rx="4" fill="url(#grad-grey)" stroke="#CBD5E1" stroke-width="1"/>
    <text class="node-title" fill="#1E293B" x="75" y="18" text-anchor="middle">Input Feature Map (F)</text>
  </g>
  <text class="dim-label" x="540" y="188" text-anchor="middle">1024 × 14 × 14</text>

  <!-- ── 1. CHANNEL ATTENTION MODULE (CAM) ── -->
  <rect x="325" y="205" width="430" height="275" rx="8" fill="#FFFBEB" stroke="#FDE68A" stroke-width="1"/>
  <text class="section-title" x="340" y="225" fill="#78350F" font-size="11">1. Channel Attention Module (CAM)</text>

  <!-- Routing from F to CAM Pools -->
  <!-- Left Pool Routing -->
  <path d="M 540 175 L 540 198 L 420 198 L 420 235" fill="none" stroke="#D97706" stroke-width="1.2" marker-end="url(#arrow-amber)"/>
  <!-- Right Pool Routing -->
  <path d="M 540 175 L 540 198 L 660 198 L 660 235" fill="none" stroke="#D97706" stroke-width="1.2" marker-end="url(#arrow-amber)"/>

  <!-- CAM Pools -->
  <!-- AvgPool -->
  <g transform="translate(365, 235)" filter="url(#shadow)">
    <rect x="0" y="0" width="110" height="30" rx="4" fill="url(#grad-teal)" stroke="#0D9488" stroke-width="0.8"/>
    <text class="node-title" fill="#0F766E" x="55" y="18" text-anchor="middle">Spatial AvgPool</text>
  </g>
  <text class="dim-label" x="420" y="278" text-anchor="middle">1024 × 1 × 1</text>
  <line x1="420" y1="265" x2="420" y2="295" stroke="#0D9488" stroke-width="1.2" marker-end="url(#arrow-teal)"/>

  <!-- MaxPool -->
  <g transform="translate(605, 235)" filter="url(#shadow)">
    <rect x="0" y="0" width="110" height="30" rx="4" fill="url(#grad-teal)" stroke="#0D9488" stroke-width="0.8"/>
    <text class="node-title" fill="#0F766E" x="55" y="18" text-anchor="middle">Spatial MaxPool</text>
  </g>
  <text class="dim-label" x="660" y="278" text-anchor="middle">1024 × 1 × 1</text>
  <line x1="660" y1="265" x2="660" y2="295" stroke="#0D9488" stroke-width="1.2" marker-end="url(#arrow-teal)"/>

  <!-- Shared MLP Blocks -->
  <!-- Left MLP -->
  <g transform="translate(355, 295)" filter="url(#shadow)">
    <rect x="0" y="0" width="130" height="40" rx="4" fill="url(#grad-indigo)" stroke="#6366F1" stroke-width="0.8"/>
    <text class="node-title" fill="#312E81" x="65" y="16" text-anchor="middle">Shared MLP (FCs)</text>
    <text class="node-desc" fill="#4F46E5" x="65" y="28" text-anchor="middle">FC(1024→64→1024)</text>
  </g>
  <line x1="420" y1="335" x2="420" y2="365" stroke="#6366F1" stroke-width="1.2"/>

  <!-- Right MLP -->
  <g transform="translate(595, 295)" filter="url(#shadow)">
    <rect x="0" y="0" width="130" height="40" rx="4" fill="url(#grad-indigo)" stroke="#6366F1" stroke-width="0.8"/>
    <text class="node-title" fill="#312E81" x="65" y="16" text-anchor="middle">Shared MLP (FCs)</text>
    <text class="node-desc" fill="#4F46E5" x="65" y="28" text-anchor="middle">Shared parameters</text>
  </g>
  <line x1="660" y1="335" x2="660" y2="365" stroke="#6366F1" stroke-width="1.2"/>

  <!-- Dotted Link for Shared MLP weights -->
  <line x1="485" y1="315" x2="595" y2="315" stroke="#6366F1" stroke-width="1" stroke-dasharray="3 3"/>
  <text class="node-desc" fill="#4F46E5" x="540" y="311" text-anchor="middle">Shared Weights</text>

  <!-- Summation (+) Operator -->
  <circle cx="540" cy="375" r="14" fill="#F1F5F9" stroke="#475569" stroke-width="1"/>
  <text class="math-symbol" x="540" y="379" text-anchor="middle">+</text>
  <!-- Routing from MLP to Summation -->
  <path d="M 420 365 L 420 375 L 526 375" fill="none" stroke="#6366F1" stroke-width="1.2" marker-end="url(#arrow-indigo)"/>
  <path d="M 660 365 L 660 375 L 554 375" fill="none" stroke="#6366F1" stroke-width="1.2" marker-end="url(#arrow-indigo)"/>

  <!-- Sigmoid Activation (CAM) -->
  <g transform="translate(500, 400)" filter="url(#shadow)">
    <rect x="0" y="0" width="80" height="24" rx="4" fill="url(#grad-grey)" stroke="#475569" stroke-width="0.8"/>
    <text class="node-title" fill="#0F172A" x="40" y="15" text-anchor="middle">Sigmoid (σ)</text>
  </g>
  <line x1="540" y1="389" x2="540" y2="400" stroke="#475569" stroke-width="1.2"/>
  <text class="dim-label" x="546" y="437">Mc ∈ 1024 × 1 × 1</text>
  <line x1="540" y1="424" x2="540" y2="445" stroke="#475569" stroke-width="1.2" marker-end="url(#arrow)"/>

  <!-- Channel Scaling (⊗) Operator -->
  <circle cx="540" cy="460" r="14" fill="#F1F5F9" stroke="#D97706" stroke-width="1.2"/>
  <text class="math-symbol" x="540" y="464" text-anchor="middle">⊗</text>

  <!-- Input F Bypass to CAM Multiplication -->
  <!-- Left Side Bypass Pipeline -->
  <path d="M 465 160 L 340 160 L 340 460 L 526 460" fill="none" stroke="#64748B" stroke-width="1.2" stroke-dasharray="2 2" marker-end="url(#arrow)"/>
  <text class="annotation" x="345" y="154">Bypass F</text>


  <!-- ── 2. SPATIAL ATTENTION MODULE (SAM) ── -->
  <!-- Refined Feature F' -->
  <g transform="translate(465, 495)" filter="url(#shadow)">
    <rect x="0" y="0" width="150" height="30" rx="4" fill="url(#grad-grey)" stroke="#CBD5E1" stroke-width="1"/>
    <text class="node-title" fill="#1E293B" x="75" y="18" text-anchor="middle">Refined Feature (F')</text>
  </g>
  <text class="dim-label" x="540" y="538" text-anchor="middle">1024 × 14 × 14</text>
  <line x1="540" y1="474" x2="540" y2="495" stroke="#D97706" stroke-width="1.2" marker-end="url(#arrow-amber)"/>

  <!-- SAM Container Box -->
  <rect x="325" y="550" width="430" height="235" rx="8" fill="#FFFBEB" stroke="#FDE68A" stroke-width="1"/>
  <text class="section-title" x="340" y="570" fill="#78350F" font-size="11">2. Spatial Attention Module (SAM)</text>

  <!-- Routing from F' to SAM Pools -->
  <path d="M 540 525 L 540 545 L 420 545 L 420 580" fill="none" stroke="#D97706" stroke-width="1.2" marker-end="url(#arrow-amber)"/>
  <path d="M 540 525 L 540 545 L 660 545 L 660 580" fill="none" stroke="#D97706" stroke-width="1.2" marker-end="url(#arrow-amber)"/>

  <!-- SAM Channel Pools -->
  <!-- AvgPool -->
  <g transform="translate(365, 580)" filter="url(#shadow)">
    <rect x="0" y="0" width="110" height="30" rx="4" fill="url(#grad-teal)" stroke="#0D9488" stroke-width="0.8"/>
    <text class="node-title" fill="#0F766E" x="55" y="18" text-anchor="middle">Channel AvgPool</text>
  </g>
  <text class="dim-label" x="420" y="623" text-anchor="middle">1 × 14 × 14</text>
  <path d="M 420 610 L 420 645 L 510 645" fill="none" stroke="#0D9488" stroke-width="1.2" marker-end="url(#arrow-teal)"/>

  <!-- MaxPool -->
  <g transform="translate(605, 580)" filter="url(#shadow)">
    <rect x="0" y="0" width="110" height="30" rx="4" fill="url(#grad-teal)" stroke="#0D9488" stroke-width="0.8"/>
    <text class="node-title" fill="#0F766E" x="55" y="18" text-anchor="middle">Channel MaxPool</text>
  </g>
  <text class="dim-label" x="660" y="623" text-anchor="middle">1 × 14 × 14</text>
  <path d="M 660 610 L 660 645 L 570 645" fill="none" stroke="#0D9488" stroke-width="1.2" marker-end="url(#arrow-teal)"/>

  <!-- Concatenate Block -->
  <g transform="translate(500, 633)" filter="url(#shadow)">
    <rect x="-30" y="0" width="140" height="24" rx="4" fill="url(#grad-grey)" stroke="#475569" stroke-width="0.8"/>
    <text class="node-title" fill="#0F172A" x="40" y="15" text-anchor="middle">Concat [Avg, Max]</text>
  </g>
  <text class="dim-label" x="540" y="670" text-anchor="middle">2 × 14 × 14</text>
  <line x1="540" y1="657" x2="540" y2="680" stroke="#475569" stroke-width="1.2" marker-end="url(#arrow)"/>

  <!-- 7x7 Convolution -->
  <g transform="translate(470, 680)" filter="url(#shadow)">
    <rect x="0" y="0" width="140" height="30" rx="4" fill="url(#grad-indigo)" stroke="#6366F1" stroke-width="0.8"/>
    <text class="node-title" fill="#312E81" x="70" y="18" text-anchor="middle">Conv 7 × 7 (pad 3)</text>
  </g>
  <line x1="540" y1="710" x2="540" y2="730" stroke="#6366F1" stroke-width="1.2" marker-end="url(#arrow-indigo)"/>

  <!-- Sigmoid Activation (SAM) -->
  <g transform="translate(500, 730)" filter="url(#shadow)">
    <rect x="0" y="0" width="80" height="24" rx="4" fill="url(#grad-grey)" stroke="#475569" stroke-width="0.8"/>
    <text class="node-title" fill="#0F172A" x="40" y="15" text-anchor="middle">Sigmoid (σ)</text>
  </g>
  <text class="dim-label" x="546" y="767">Ms ∈ 1 × 14 × 14</text>
  <line x1="540" y1="754" x2="540" y2="796" stroke="#475569" stroke-width="1.2" marker-end="url(#arrow)"/>

  <!-- Spatial Scaling (⊗) Operator -->
  <circle cx="540" cy="810" r="14" fill="#F1F5F9" stroke="#D97706" stroke-width="1.2"/>
  <text class="math-symbol" x="540" y="814" text-anchor="middle">⊗</text>

  <!-- Refined F' Bypass to SAM Multiplication -->
  <path d="M 465 510 L 340 510 L 340 810 L 526 810" fill="none" stroke="#64748B" stroke-width="1.2" stroke-dasharray="2 2" marker-end="url(#arrow)"/>
  <text class="annotation" x="345" y="504">Bypass F'</text>

  <!-- Output refined Feature Map F'' -->
  <g transform="translate(465, 840)" filter="url(#shadow)">
    <rect x="0" y="0" width="150" height="30" rx="4" fill="url(#grad-grey)" stroke="#059669" stroke-width="1.2"/>
    <text class="node-title" fill="#064E3B" x="75" y="18" text-anchor="middle">Output Feature (F'')</text>
  </g>
  <text class="dim-label" x="540" y="883" text-anchor="middle">1024 × 14 × 14</text>
  <line x1="540" y1="824" x2="540" y2="840" stroke="#D97706" stroke-width="1.2" marker-end="url(#arrow-amber)"/>

</svg>
